<svg version="1.1" xmlns="http://www.w3.org/2000/svg" viewBox="0 0 572.3929330339819 190.7863821458061" width="572.3929330339819" height="190.7863821458061" class="excalidraw-svg">
  <!-- svg-source:excalidraw -->
  
  <defs>
    <style class="style-fonts">
      @font-face {
        font-family: "Virgil";
        src: url("https://excalidraw.com/Virgil.woff2");
      }
      @font-face {
        font-family: "Cascadia";
        src: url("https://excalidraw.com/Cascadia.woff2");
      }
      @font-face {
        font-family: "Assistant";
        src: url("https://excalidraw.com/Assistant-Regular.woff2");
      }
    </style>
    
  </defs>
  <rect x="0" y="0" width="572.3929330339819" height="190.7863821458061" fill="#ffffff"/><g stroke-linecap="round"><g transform="translate(475.5559882680816 34.3315145202572) rotate(0 27.515644274514415 0)"><path d="M0 0 C9.17 0, 45.86 0, 55.03 0 M0 0 C9.17 0, 45.86 0, 55.03 0" stroke="#1e1e1e" stroke-width="2" fill="none"/></g></g><mask/><g stroke-linecap="round"><g transform="translate(475.5559881285335 123.07697138940321) rotate(0 27.515644274514415 0)"><path d="M0 0 C9.17 0, 45.86 0, 55.03 0 M0 0 C9.17 0, 45.86 0, 55.03 0" stroke="#1e1e1e" stroke-width="2" fill="none"/></g></g><mask/><g stroke-linecap="round"><g transform="translate(530.5872768835558 34.331514485632255) rotate(0 14.99098451365154 0)"><path d="M0 0 C5 0, 24.98 0, 29.98 0" stroke="#1e1e1e" stroke-width="1.5" fill="none" stroke-dasharray="1.5 7"/></g></g><mask/><g stroke-linecap="round"><g transform="translate(530.5872767440077 123.07697135477827) rotate(0 15.902828144987097 0)"><path d="M0 0 C5.3 0, 26.5 0, 31.81 0" stroke="#1e1e1e" stroke-width="1.5" fill="none" stroke-dasharray="1.5 7"/></g></g><mask/><g stroke-linecap="round"><g transform="translate(10.000000139548092 34.21725934031531) rotate(0 14.99098451365154 0)"><path d="M0 0 C5 0, 24.98 0, 29.98 0" stroke="#1e1e1e" stroke-width="1.5" fill="none" stroke-dasharray="1.5 7"/></g></g><mask/><g stroke-linecap="round"><g transform="translate(10 122.96271620946129) rotate(0 17.031100178755878 0)"><path d="M0 0 C5.68 0, 28.39 0, 34.06 0" stroke="#1e1e1e" stroke-width="1.5" fill="none" stroke-dasharray="1.5 7"/></g></g><mask/><g stroke-linecap="round"><g transform="translate(257.0081591308617 147.3320304601628) rotate(0 108.87714657242446 0)"><path d="M0 0 C36.29 0, 181.46 0, 217.75 0 M0 0 C36.29 0, 181.46 0, 217.75 0" stroke="#1971c2" stroke-width="2" fill="none"/></g><g transform="translate(257.0081591308617 147.3320304601628) rotate(0 108.87714657242446 0)"><path d="M0 -15 C0 -10.73, 0 -6.47, 0 0 M0 -15 C0 -10.55, 0 -6.1, 0 0" stroke="#1971c2" stroke-width="2" fill="none"/></g><g transform="translate(257.0081591308617 147.3320304601628) rotate(0 108.87714657242446 0)"><path d="M0 15 C0 10.73, 0 6.47, 0 0 M0 15 C0 10.55, 0 6.1, 0 0" stroke="#1971c2" stroke-width="2" fill="none"/></g><g transform="translate(257.0081591308617 147.3320304601628) rotate(0 108.87714657242446 0)"><path d="M217.75 15 C217.75 10.73, 217.75 6.47, 217.75 0 M217.75 15 C217.75 10.55, 217.75 6.1, 217.75 0" stroke="#1971c2" stroke-width="2" fill="none"/></g><g transform="translate(257.0081591308617 147.3320304601628) rotate(0 108.87714657242446 0)"><path d="M217.75 -15 C217.75 -10.73, 217.75 -6.47, 217.75 0 M217.75 -15 C217.75 -10.55, 217.75 -6.1, 217.75 0" stroke="#1971c2" stroke-width="2" fill="none"/></g></g><mask/></svg>