<svg version="1.1" xmlns="http://www.w3.org/2000/svg" viewBox="0 0 417.03684947291697 538.1455976950999" width="417.03684947291697" height="538.1455976950999" class="excalidraw-svg">
  <!-- svg-source:excalidraw -->
  
  <defs>
    <style class="style-fonts">
      @font-face {
        font-family: "Virgil";
        src: url("https://excalidraw.com/Virgil.woff2");
      }
      @font-face {
        font-family: "Cascadia";
        src: url("https://excalidraw.com/Cascadia.woff2");
      }
      @font-face {
        font-family: "Assistant";
        src: url("https://excalidraw.com/Assistant-Regular.woff2");
      }
    </style>
    
  </defs>
  <rect x="0" y="0" width="417.03684947291697" height="538.1455976950999" fill="#ffffff"/><g stroke-linecap="round"><g transform="translate(208.51842476640206 485.70250876120326) rotate(0 0 -237.85125438060163)"><path d="M0 0 C0 -79.28, 0 -396.42, 0 -475.7 M0 0 C0 -79.28, 0 -396.42, 0 -475.7" stroke="#1e1e1e" stroke-width="1" fill="none"/></g><g transform="translate(208.51842476640206 485.70250876120326) rotate(0 0 -237.85125438060163)"><path d="M0 -475.7 L6.34 -462.11 L-6.34 -462.11 L0 -475.7" stroke="none" stroke-width="0" fill="#1e1e1e" fill-rule="evenodd"/><path d="M0 -475.7 C1.98 -471.46, 3.95 -467.22, 6.34 -462.11 M0 -475.7 C1.46 -472.56, 2.93 -469.42, 6.34 -462.11 M6.34 -462.11 C2.68 -462.11, -0.98 -462.11, -6.34 -462.11 M6.34 -462.11 C2.49 -462.11, -1.36 -462.11, -6.34 -462.11 M-6.34 -462.11 C-3.86 -467.43, -1.38 -472.75, 0 -475.7 M-6.34 -462.11 C-4.17 -466.77, -1.99 -471.42, 0 -475.7 M0 -475.7 C0 -475.7, 0 -475.7, 0 -475.7 M0 -475.7 C0 -475.7, 0 -475.7, 0 -475.7" stroke="#1e1e1e" stroke-width="1" fill="none"/></g></g><mask/><g stroke-linecap="round"><g transform="translate(10 507.9313311967294) rotate(0 198.51842473645848 0)"><path d="M0 0 C66.17 0, 330.86 0, 397.04 0 M0 0 C66.17 0, 330.86 0, 397.04 0" stroke="#1e1e1e" stroke-width="1" fill="none"/></g><g transform="translate(10 507.9313311967294) rotate(0 198.51842473645848 0)"><path d="M397.04 0 L383.44 6.34 L383.44 -6.34 L397.04 0" stroke="none" stroke-width="0" fill="#1e1e1e" fill-rule="evenodd"/><path d="M397.04 0 C391.86 2.42, 386.68 4.83, 383.44 6.34 M397.04 0 C392.85 1.95, 388.66 3.91, 383.44 6.34 M383.44 6.34 C383.44 2.9, 383.44 -0.54, 383.44 -6.34 M383.44 6.34 C383.44 3.49, 383.44 0.63, 383.44 -6.34 M383.44 -6.34 C387.93 -4.25, 392.42 -2.16, 397.04 0 M383.44 -6.34 C386.69 -4.82, 389.94 -3.31, 397.04 0 M397.04 0 C397.04 0, 397.04 0, 397.04 0 M397.04 0 C397.04 0, 397.04 0, 397.04 0" stroke="#1e1e1e" stroke-width="1" fill="none"/></g></g><mask/><g stroke-linecap="round"><g transform="translate(127.70922243797114 440.31069836325435) rotate(0 40.4046010133104 -79.37378411405851)"><path d="M0 0 C3.26 -11.15, 13.05 -48.22, 19.57 -66.88 C26.1 -85.55, 32.88 -99.79, 39.15 -112.01 C45.42 -124.23, 51.28 -132.83, 57.22 -140.21 C63.16 -147.6, 70.85 -153.24, 74.79 -156.33 C78.72 -159.42, 79.81 -158.34, 80.81 -158.75 M0 0 C3.26 -11.15, 13.05 -48.22, 19.57 -66.88 C26.1 -85.55, 32.88 -99.79, 39.15 -112.01 C45.42 -124.23, 51.28 -132.83, 57.22 -140.21 C63.16 -147.6, 70.85 -153.24, 74.79 -156.33 C78.72 -159.42, 79.81 -158.34, 80.81 -158.75" stroke="#1e1e1e" stroke-width="1" fill="none"/></g></g><mask/><g stroke-linecap="round"><g transform="translate(68.68112154995868 528.1455971476923) rotate(0 69.91865102790042 -123.69415492870391)"><path d="M0 0 C3.11 -14.5, 10.87 -61.11, 18.64 -87.03 C26.41 -112.95, 36.98 -136.59, 46.61 -155.52 C56.24 -174.46, 66.86 -188.43, 76.41 -200.65 C85.97 -212.87, 94.88 -221.47, 103.92 -228.85 C112.97 -236.24, 124.68 -241.88, 130.67 -244.97 C136.65 -248.06, 138.31 -246.99, 139.84 -247.39 M0 0 C3.11 -14.5, 10.87 -61.11, 18.64 -87.03 C26.41 -112.95, 36.98 -136.59, 46.61 -155.52 C56.24 -174.46, 66.86 -188.43, 76.41 -200.65 C85.97 -212.87, 94.88 -221.47, 103.92 -228.85 C112.97 -236.24, 124.68 -241.88, 130.67 -244.97 C136.65 -248.06, 138.31 -246.99, 139.84 -247.39" stroke="#1e1e1e" stroke-width="1" fill="none"/></g></g><mask/><g stroke-linecap="round"><g transform="translate(116.8863182379402 64.9126973750104) rotate(0 45.81605271473015 79.37378411405851)"><path d="M0 0 C3.7 11.15, 14.8 48.22, 22.2 66.88 C29.6 85.55, 37.28 99.79, 44.39 112.01 C51.51 124.23, 58.15 132.83, 64.88 140.21 C71.62 147.6, 80.34 153.24, 84.8 156.33 C89.26 159.42, 90.49 158.34, 91.63 158.75 M0 0 C3.7 11.15, 14.8 48.22, 22.2 66.88 C29.6 85.55, 37.28 99.79, 44.39 112.01 C51.51 124.23, 58.15 132.83, 64.88 140.21 C71.62 147.6, 80.34 153.24, 84.8 156.33 C89.26 159.42, 90.49 158.34, 91.63 158.75" stroke="#1e1e1e" stroke-width="1" fill="none"/></g></g><mask/><g stroke-linecap="round"><g transform="translate(146.71299574698548 473.05525980570565) rotate(0 30.902714731857145 -46.35402248051119)"><path d="M0 0 C2.88 -7.59, 11.3 -33.12, 17.27 -45.55 C23.24 -57.98, 29.52 -67.14, 35.82 -74.6 C42.11 -82.05, 50.73 -87.27, 55.06 -90.29 C59.39 -93.31, 60.68 -92.31, 61.81 -92.71 M0 0 C2.88 -7.59, 11.3 -33.12, 17.27 -45.55 C23.24 -57.98, 29.52 -67.14, 35.82 -74.6 C42.11 -82.05, 50.73 -87.27, 55.06 -90.29 C59.39 -93.31, 60.68 -92.31, 61.81 -92.71" stroke="#1e1e1e" stroke-width="1" fill="none"/></g></g><mask/><g stroke-linecap="round"><g transform="translate(289.3276261174065 440.3106989106618) rotate(0 -40.4046010133104 -79.37378411405851)"><path d="M0 0 C-3.26 -11.15, -13.05 -48.22, -19.57 -66.88 C-26.1 -85.55, -32.88 -99.79, -39.15 -112.01 C-45.42 -124.23, -51.28 -132.83, -57.22 -140.21 C-63.16 -147.6, -70.85 -153.24, -74.79 -156.33 C-78.72 -159.42, -79.81 -158.34, -80.81 -158.75 M0 0 C-3.26 -11.15, -13.05 -48.22, -19.57 -66.88 C-26.1 -85.55, -32.88 -99.79, -39.15 -112.01 C-45.42 -124.23, -51.28 -132.83, -57.22 -140.21 C-63.16 -147.6, -70.85 -153.24, -74.79 -156.33 C-78.72 -159.42, -79.81 -158.34, -80.81 -158.75" stroke="#1e1e1e" stroke-width="1" fill="none"/></g></g><mask/><g stroke-linecap="round"><g transform="translate(348.35572700541894 528.1455976950999) rotate(0 -69.91865102790042 -123.69415492870391)"><path d="M0 0 C-3.11 -14.5, -10.87 -61.11, -18.64 -87.03 C-26.41 -112.95, -36.98 -136.59, -46.61 -155.52 C-56.24 -174.46, -66.86 -188.43, -76.41 -200.65 C-85.97 -212.87, -94.88 -221.47, -103.92 -228.85 C-112.97 -236.24, -124.68 -241.88, -130.67 -244.97 C-136.65 -248.06, -138.31 -246.99, -139.84 -247.39 M0 0 C-3.11 -14.5, -10.87 -61.11, -18.64 -87.03 C-26.41 -112.95, -36.98 -136.59, -46.61 -155.52 C-56.24 -174.46, -66.86 -188.43, -76.41 -200.65 C-85.97 -212.87, -94.88 -221.47, -103.92 -228.85 C-112.97 -236.24, -124.68 -241.88, -130.67 -244.97 C-136.65 -248.06, -138.31 -246.99, -139.84 -247.39" stroke="#1e1e1e" stroke-width="1" fill="none"/></g></g><mask/><g stroke-linecap="round"><g transform="translate(300.1505303174374 64.91269792241792) rotate(0 -45.81605271473015 79.37378411405851)"><path d="M0 0 C-3.7 11.15, -14.8 48.22, -22.2 66.88 C-29.6 85.55, -37.28 99.79, -44.39 112.01 C-51.51 124.23, -58.15 132.83, -64.88 140.21 C-71.62 147.6, -80.34 153.24, -84.8 156.33 C-89.26 159.42, -90.49 158.34, -91.63 158.75 M0 0 C-3.7 11.15, -14.8 48.22, -22.2 66.88 C-29.6 85.55, -37.28 99.79, -44.39 112.01 C-51.51 124.23, -58.15 132.83, -64.88 140.21 C-71.62 147.6, -80.34 153.24, -84.8 156.33 C-89.26 159.42, -90.49 158.34, -91.63 158.75" stroke="#1e1e1e" stroke-width="1" fill="none"/></g></g><mask/><g stroke-linecap="round"><g transform="translate(270.3238549029486 473.05525952806016) rotate(0 -30.902714731857145 -46.35402248051119)"><path d="M0 0 C-2.88 -7.59, -11.3 -33.12, -17.27 -45.55 C-23.24 -57.98, -29.52 -67.14, -35.82 -74.6 C-42.11 -82.05, -50.73 -87.27, -55.06 -90.29 C-59.39 -93.31, -60.68 -92.31, -61.81 -92.71 M0 0 C-2.88 -7.59, -11.3 -33.12, -17.27 -45.55 C-23.24 -57.98, -29.52 -67.14, -35.82 -74.6 C-42.11 -82.05, -50.73 -87.27, -55.06 -90.29 C-59.39 -93.31, -60.68 -92.31, -61.81 -92.71" stroke="#1e1e1e" stroke-width="1" fill="none"/></g></g><mask/></svg>