<svg version="1.1" xmlns="http://www.w3.org/2000/svg" viewBox="0 0 765.0656421591027 389.37799675906956" width="765.0656421591027" height="389.37799675906956" class="excalidraw-svg">
  <!-- svg-source:excalidraw -->
  
  <defs>
    <style class="style-fonts">
      @font-face {
        font-family: "Virgil";
        src: url("https://excalidraw.com/Virgil.woff2");
      }
      @font-face {
        font-family: "Cascadia";
        src: url("https://excalidraw.com/Cascadia.woff2");
      }
      @font-face {
        font-family: "Assistant";
        src: url("https://excalidraw.com/Assistant-Regular.woff2");
      }
    </style>
    
  </defs>
  <rect x="0" y="0" width="765.0656421591027" height="389.37799675906956" fill="#ffffff"/><g stroke-linecap="round" transform="translate(504.76086108322545 165.76690602583025) rotate(0 15.469006844692558 73.80470443906489)"><path d="M0 0 L30.94 0 L30.94 147.61 L0 147.61" stroke="none" stroke-width="0" fill="#ffec99"/><path d="M0 0 C8.16 0, 16.32 0, 30.94 0 M0 0 C10.31 0, 20.63 0, 30.94 0 M30.94 0 C30.94 44.84, 30.94 89.69, 30.94 147.61 M30.94 0 C30.94 50.96, 30.94 101.92, 30.94 147.61 M30.94 147.61 C19.52 147.61, 8.1 147.61, 0 147.61 M30.94 147.61 C22.32 147.61, 13.71 147.61, 0 147.61 M0 147.61 C0 95.16, 0 42.71, 0 0 M0 147.61 C0 105.15, 0 62.68, 0 0" stroke="transparent" stroke-width="2" fill="none"/></g><g stroke-linecap="round" transform="translate(536.1433130700616 137.3361109710153) rotate(0 18.44892388614298 88.12654633855279)"><path d="M0 0 L36.9 0 L36.9 176.25 L0 176.25" stroke="none" stroke-width="0" fill="#a5d8ff"/><path d="M0 0 C10.46 0, 20.92 0, 36.9 0 M0 0 C7.74 0, 15.48 0, 36.9 0 M36.9 0 C36.9 43.89, 36.9 87.78, 36.9 176.25 M36.9 0 C36.9 37.23, 36.9 74.46, 36.9 176.25 M36.9 176.25 C22.28 176.25, 7.66 176.25, 0 176.25 M36.9 176.25 C25.73 176.25, 14.56 176.25, 0 176.25 M0 176.25 C0 131.79, 0 87.33, 0 0 M0 176.25 C0 134.36, 0 92.46, 0 0" stroke="transparent" stroke-width="2" fill="none"/></g><g stroke-linecap="round" transform="translate(573.0411608423476 251.9829801595112) rotate(0 21.74336560343292 30.80311174430483)"><path d="M0 0 L43.49 0 L43.49 61.61 L0 61.61" stroke="none" stroke-width="0" fill="#ffc9c9"/><path d="M0 0 C13.89 0, 27.78 0, 43.49 0 M0 0 C8.86 0, 17.72 0, 43.49 0 M43.49 0 C43.49 14.93, 43.49 29.85, 43.49 61.61 M43.49 0 C43.49 18.08, 43.49 36.16, 43.49 61.61 M43.49 61.61 C29.82 61.61, 16.16 61.61, 0 61.61 M43.49 61.61 C32.57 61.61, 21.66 61.61, 0 61.61 M0 61.61 C0 46.39, 0 31.17, 0 0 M0 61.61 C0 43.4, 0 25.2, 0 0" stroke="transparent" stroke-width="2" fill="none"/></g><g stroke-linecap="round" transform="translate(615.5395972360159 179.8345054735843) rotate(0 25.861428222820223 66.54789653731945)"><path d="M0 0 L51.72 0 L51.72 133.1 L0 133.1" stroke="none" stroke-width="0" fill="#d0bfff"/><path d="M0 0 C15.21 0, 30.42 0, 51.72 0 M0 0 C19.89 0, 39.79 0, 51.72 0 M51.72 0 C51.72 49.68, 51.72 99.36, 51.72 133.1 M51.72 0 C51.72 49.43, 51.72 98.85, 51.72 133.1 M51.72 133.1 C39.69 133.1, 27.66 133.1, 0 133.1 M51.72 133.1 C37.95 133.1, 24.17 133.1, 0 133.1 M0 133.1 C0 80.24, 0 27.39, 0 0 M0 133.1 C0 98.11, 0 63.13, 0 0" stroke="transparent" stroke-width="2" fill="none"/></g><g stroke-linecap="round"><g transform="translate(37.03513019550854 337.4542245885274) rotate(0 0 -155.6345912065398)"><path d="M0 0 C0 -51.88, 0 -259.39, 0 -311.27 M0 0 C0 -51.88, 0 -259.39, 0 -311.27" stroke="#1e1e1e" stroke-width="1" fill="none"/></g><g transform="translate(37.03513019550854 337.4542245885274) rotate(0 0 -155.6345912065398)"><path d="M0 -311.27 L6.34 -297.67 L-6.34 -297.67 L0 -311.27" stroke="none" stroke-width="0" fill="#1e1e1e" fill-rule="evenodd"/><path d="M0 -311.27 C1.51 -308.03, 3.02 -304.8, 6.34 -297.67 M0 -311.27 C2.36 -306.21, 4.72 -301.14, 6.34 -297.67 M6.34 -297.67 C1.47 -297.67, -3.4 -297.67, -6.34 -297.67 M6.34 -297.67 C3.27 -297.67, 0.19 -297.67, -6.34 -297.67 M-6.34 -297.67 C-3.89 -302.92, -1.45 -308.16, 0 -311.27 M-6.34 -297.67 C-4.13 -302.42, -1.91 -307.17, 0 -311.27 M0 -311.27 C0 -311.27, 0 -311.27, 0 -311.27 M0 -311.27 C0 -311.27, 0 -311.27, 0 -311.27" stroke="#1e1e1e" stroke-width="1" fill="none"/></g></g><mask/><g stroke-linecap="round"><g transform="translate(10 314.07247906544535) rotate(0 155.99993896484375 0)"><path d="M0 0 C52 0, 260 0, 312 0 M0 0 C52 0, 260 0, 312 0" stroke="#1e1e1e" stroke-width="1" fill="none"/></g><g transform="translate(10 314.07247906544535) rotate(0 155.99993896484375 0)"><path d="M312 0 L298.41 6.34 L298.41 -6.34 L312 0" stroke="none" stroke-width="0" fill="#1e1e1e" fill-rule="evenodd"/><path d="M312 0 C306.8 2.42, 301.6 4.85, 298.41 6.34 M312 0 C308.61 1.58, 305.23 3.16, 298.41 6.34 M298.41 6.34 C298.41 2.16, 298.41 -2.02, 298.41 -6.34 M298.41 6.34 C298.41 2.73, 298.41 -0.88, 298.41 -6.34 M298.41 -6.34 C302.7 -4.34, 306.99 -2.33, 312 0 M298.41 -6.34 C302.72 -4.33, 307.04 -2.31, 312 0 M312 0 C312 0, 312 0, 312 0 M312 0 C312 0, 312 0, 312 0" stroke="#1e1e1e" stroke-width="1" fill="none"/></g></g><mask/><g stroke-linecap="round"><g transform="translate(33.0404052734375 117.6141977330586) rotate(0 84.47998046875 85.91998291015625)"><path d="M0 0 C2.24 -2.4, 5.92 -9.44, 13.44 -14.4 C20.96 -19.36, 34.72 -28.64, 45.12 -29.76 C55.52 -30.88, 65.28 -27.84, 75.84 -21.12 C86.4 -14.4, 99.68 -1.76, 108.48 10.56 C117.28 22.88, 121.92 35.84, 128.64 52.8 C135.36 69.76, 143.04 92.32, 148.8 112.32 C154.56 132.32, 159.84 157.92, 163.2 172.8 C166.56 187.68, 168 196.8, 168.96 201.6 M0 0 C2.24 -2.4, 5.92 -9.44, 13.44 -14.4 C20.96 -19.36, 34.72 -28.64, 45.12 -29.76 C55.52 -30.88, 65.28 -27.84, 75.84 -21.12 C86.4 -14.4, 99.68 -1.76, 108.48 10.56 C117.28 22.88, 121.92 35.84, 128.64 52.8 C135.36 69.76, 143.04 92.32, 148.8 112.32 C154.56 132.32, 159.84 157.92, 163.2 172.8 C166.56 187.68, 168 196.8, 168.96 201.6" stroke="#e03131" stroke-width="2" fill="none"/></g></g><mask/><g transform="translate(290.3053469395371 331.9342050572774) rotate(0 26.6845703125 11.5)"><text x="0" y="0" font-family="Helvetica, Segoe UI Emoji" font-size="20px" fill="#1e1e1e" text-anchor="start" style="white-space: pre;" direction="ltr" dominant-baseline="text-before-edge">Depth</text></g><g transform="translate(60.3203125 18.254151346339853) rotate(0 62.2607421875 11.5)"><text x="0" y="0" font-family="Helvetica, Segoe UI Emoji" font-size="20px" fill="#1e1e1e" text-anchor="start" style="white-space: pre;" direction="ltr" dominant-baseline="text-before-edge">Concentration</text></g><g stroke-linecap="round"><g transform="translate(457.0355577306648 337.4542241661609) rotate(0 1.0658141036401503e-14 -155.6345912065398)"><path d="M0 0 C0 -51.88, 0 -259.39, 0 -311.27 M0 0 C0 -51.88, 0 -259.39, 0 -311.27" stroke="#1e1e1e" stroke-width="1" fill="none"/></g><g transform="translate(457.0355577306648 337.4542241661609) rotate(0 1.0658141036401503e-14 -155.6345912065398)"><path d="M0 -311.27 L6.34 -297.67 L-6.34 -297.67 L0 -311.27" stroke="none" stroke-width="0" fill="#1e1e1e" fill-rule="evenodd"/><path d="M0 -311.27 C1.42 -308.22, 2.84 -305.18, 6.34 -297.67 M0 -311.27 C2 -306.99, 3.99 -302.71, 6.34 -297.67 M6.34 -297.67 C1.95 -297.67, -2.44 -297.67, -6.34 -297.67 M6.34 -297.67 C2.98 -297.67, -0.39 -297.67, -6.34 -297.67 M-6.34 -297.67 C-4.5 -301.62, -2.66 -305.56, 0 -311.27 M-6.34 -297.67 C-4.4 -301.82, -2.47 -305.97, 0 -311.27 M0 -311.27 C0 -311.27, 0 -311.27, 0 -311.27 M0 -311.27 C0 -311.27, 0 -311.27, 0 -311.27" stroke="#1e1e1e" stroke-width="1" fill="none"/></g></g><mask/><g stroke-linecap="round"><g transform="translate(430.00042753515623 314.0724786430789) rotate(0 155.99993896484375 0)"><path d="M0 0 C52 0, 260 0, 312 0 M0 0 C52 0, 260 0, 312 0" stroke="#1e1e1e" stroke-width="1" fill="none"/></g><g transform="translate(430.00042753515623 314.0724786430789) rotate(0 155.99993896484375 0)"><path d="M312 0 L298.41 6.34 L298.41 -6.34 L312 0" stroke="none" stroke-width="0" fill="#1e1e1e" fill-rule="evenodd"/><path d="M312 0 C306.97 2.35, 301.93 4.69, 298.41 6.34 M312 0 C307.87 1.93, 303.74 3.85, 298.41 6.34 M298.41 6.34 C298.41 3.16, 298.41 -0.02, 298.41 -6.34 M298.41 6.34 C298.41 3.32, 298.41 0.3, 298.41 -6.34 M298.41 -6.34 C303.59 -3.92, 308.77 -1.51, 312 0 M298.41 -6.34 C303.24 -4.08, 308.07 -1.83, 312 0 M312 0 C312 0, 312 0, 312 0 M312 0 C312 0, 312 0, 312 0" stroke="#1e1e1e" stroke-width="1" fill="none"/></g></g><mask/><g stroke-linecap="round"><g transform="translate(452.9457588963203 114.22733991035463) rotate(0 26.3634263180314 25.80251471567972)"><path d="M0 0 C3.28 0.29, 12.84 -1.43, 19.69 1.71 C26.54 4.85, 36.1 12.7, 41.1 18.84 C46.09 24.97, 47.72 33.07, 49.66 38.53 C51.6 43.99, 52.22 49.43, 52.73 51.61 M0 0 C3.28 0.29, 12.84 -1.43, 19.69 1.71 C26.54 4.85, 36.1 12.7, 41.1 18.84 C46.09 24.97, 47.72 33.07, 49.66 38.53 C51.6 43.99, 52.22 49.43, 52.73 51.61" stroke="#1971c2" stroke-width="2" fill="none"/></g></g><mask/><g stroke-linecap="round"><g transform="translate(506.03226229108486 165.6013368203488) rotate(0 80.65640608003974 59.06414025944056)"><path d="M0 0 C8.35 0, 16.71 0, 29.11 0 M0 0 C6.5 0, 13 0, 29.11 0 M29.11 0 C29.11 -9.84, 29.11 -19.69, 29.11 -29.11 M29.11 0 C29.11 -7.47, 29.11 -14.94, 29.11 -29.11 M29.11 -29.11 C43.32 -29.11, 57.52 -29.11, 68.25 -29.11 M29.11 -29.11 C37.05 -29.11, 44.99 -29.11, 68.25 -29.11 M68.25 -29.11 C68.12 -3.7, 67.98 21.72, 67.64 85.62 M68.25 -29.11 C68.04 11.89, 67.82 52.9, 67.64 85.62 M67.64 85.62 C79.14 85.62, 90.64 85.62, 110.45 85.62 M67.64 85.62 C76.59 85.62, 85.55 85.62, 110.45 85.62 M110.45 85.62 C110.13 58.4, 109.81 31.17, 109.6 13.7 M110.45 85.62 C110.27 70.19, 110.09 54.77, 109.6 13.7 M109.6 13.7 C128.73 13.7, 147.87 13.7, 161.31 13.7 M109.6 13.7 C128.9 13.7, 148.2 13.7, 161.31 13.7 M161.31 13.7 C161.23 44.59, 161.16 75.48, 160.97 147.24 M161.31 13.7 C161.24 40.78, 161.17 67.87, 160.97 147.24" stroke="#1971c2" stroke-width="2" fill="none"/></g></g><mask/><g transform="translate(479.2687723612752 10) rotate(0 62.2607421875 11.5)"><text x="0" y="0" font-family="Helvetica, Segoe UI Emoji" font-size="20px" fill="#1e1e1e" text-anchor="start" style="white-space: pre;" direction="ltr" dominant-baseline="text-before-edge">Concentration</text></g><g transform="translate(701.6965015341027 327.5697335393494) rotate(0 26.6845703125 11.5)"><text x="0" y="0" font-family="Helvetica, Segoe UI Emoji" font-size="20px" fill="#1e1e1e" text-anchor="start" style="white-space: pre;" direction="ltr" dominant-baseline="text-before-edge">Depth</text></g><g transform="translate(514.441643650174 279.44632042903436) rotate(0 6.669921875 11.5)"><text x="0" y="0" font-family="Helvetica, Segoe UI Emoji" font-size="20px" fill="#1971c2" text-anchor="start" style="white-space: pre;" direction="ltr" dominant-baseline="text-before-edge">P</text></g><g transform="translate(543.7596465066448 279.44632042903436) rotate(0 7.2216796875 11.5)"><text x="0" y="0" font-family="Helvetica, Segoe UI Emoji" font-size="20px" fill="#1971c2" text-anchor="start" style="white-space: pre;" direction="ltr" dominant-baseline="text-before-edge">N</text></g><g transform="translate(588.3533343344219 279.44632042903436) rotate(0 6.669921875 11.5)"><text x="0" y="0" font-family="Helvetica, Segoe UI Emoji" font-size="20px" fill="#1971c2" text-anchor="start" style="white-space: pre;" direction="ltr" dominant-baseline="text-before-edge">P</text></g><g transform="translate(634.7429611515893 279.44632042903436) rotate(0 7.2216796875 11.5)"><text x="0" y="0" font-family="Helvetica, Segoe UI Emoji" font-size="20px" fill="#1971c2" text-anchor="start" style="white-space: pre;" direction="ltr" dominant-baseline="text-before-edge">N</text></g><g transform="translate(510.1720463850422 107.91940610150633) rotate(0 12.2314453125 11.5)"><text x="0" y="0" font-family="Helvetica, Segoe UI Emoji" font-size="20px" fill="transparent" text-anchor="start" style="white-space: pre;" direction="ltr" dominant-baseline="text-before-edge">E1</text></g><g transform="translate(542.6910175540918 111.65311788539478) rotate(0 12.2314453125 11.5)"><text x="0" y="0" font-family="Helvetica, Segoe UI Emoji" font-size="20px" fill="#1971c2" text-anchor="start" style="white-space: pre;" direction="ltr" dominant-baseline="text-before-edge">E3</text></g><g transform="translate(580.3574832151769 225.2155521879442) rotate(0 12.2314453125 11.5)"><text x="0" y="0" font-family="Helvetica, Segoe UI Emoji" font-size="20px" fill="#fa5252" text-anchor="start" style="white-space: pre;" direction="ltr" dominant-baseline="text-before-edge">E2</text></g><g transform="translate(630.4057429688211 153.35535110141626) rotate(0 12.2314453125 11.5)"><text x="0" y="0" font-family="Helvetica, Segoe UI Emoji" font-size="20px" fill="#7950f2" text-anchor="start" style="white-space: pre;" direction="ltr" dominant-baseline="text-before-edge">E1</text></g><g transform="translate(507.6051273882 141.20707894155353) rotate(0 12.2314453125 11.5)"><text x="0" y="0" font-family="Helvetica, Segoe UI Emoji" font-size="20px" fill="#ffd43b" text-anchor="start" style="white-space: pre;" direction="ltr" dominant-baseline="text-before-edge">E4</text></g><g transform="translate(520.2498756916909 356.37799675906956) rotate(0 54.462890625 11.5)"><text x="0" y="0" font-family="Helvetica, Segoe UI Emoji" font-size="20px" fill="#1e1e1e" text-anchor="start" style="white-space: pre;" direction="ltr" dominant-baseline="text-before-edge">With epitaxy</text></g><g transform="translate(84.51368073126878 356.37799675906956) rotate(0 68.3642578125 11.5)"><text x="0" y="0" font-family="Helvetica, Segoe UI Emoji" font-size="20px" fill="#1e1e1e" text-anchor="start" style="white-space: pre;" direction="ltr" dominant-baseline="text-before-edge">Without epitaxy</text></g></svg>