<svg version="1.1" xmlns="http://www.w3.org/2000/svg" viewBox="0 0 544.6596937312387 649.535269211674" width="544.6596937312387" height="649.535269211674" class="excalidraw-svg">
  <!-- svg-source:excalidraw -->
  
  <defs>
    <style class="style-fonts">
      @font-face {
        font-family: "Virgil";
        src: url("https://excalidraw.com/Virgil.woff2");
      }
      @font-face {
        font-family: "Cascadia";
        src: url("https://excalidraw.com/Cascadia.woff2");
      }
      @font-face {
        font-family: "Assistant";
        src: url("https://excalidraw.com/Assistant-Regular.woff2");
      }
    </style>
    
  </defs>
  <rect x="0" y="0" width="544.6596937312387" height="649.535269211674" fill="#ffffff"/><g stroke-linecap="round"><g transform="translate(133.07531991925947 639.535269211674) rotate(0 0 -284.29116902958435)"><path d="M0 0 C0 -94.76, 0 -473.82, 0 -568.58 M0 0 C0 -94.76, 0 -473.82, 0 -568.58" stroke="#1e1e1e" stroke-width="2" fill="none"/></g><g transform="translate(133.07531991925947 639.535269211674) rotate(0 0 -284.29116902958435)"><path d="M10.26 -540.39 C6.23 -551.48, 2.19 -562.56, 0 -568.58 M10.26 -540.39 C7.93 -546.79, 5.6 -553.19, 0 -568.58" stroke="#1e1e1e" stroke-width="2" fill="none"/></g><g transform="translate(133.07531991925947 639.535269211674) rotate(0 0 -284.29116902958435)"><path d="M-10.26 -540.39 C-6.23 -551.48, -2.19 -562.56, 0 -568.58 M-10.26 -540.39 C-7.93 -546.79, -5.6 -553.19, 0 -568.58" stroke="#1e1e1e" stroke-width="2" fill="none"/></g></g><mask/><g transform="translate(10 10) rotate(0 133.45343017578125 17.64544579086754)"><text x="0" y="0" font-family="Helvetica, Segoe UI Emoji" font-size="30.687731810204397px" fill="#1e1e1e" text-anchor="start" style="white-space: pre;" direction="ltr" dominant-baseline="text-before-edge">E = electron energy</text></g><g stroke-linecap="round"><g transform="translate(59.42466992324364 496.65319739548426) rotate(0 74.38693828792206 0)"><path d="M0 0 C24.8 0, 123.98 0, 148.77 0" stroke="#1971c2" stroke-width="2.5" fill="none" stroke-dasharray="8 10"/></g></g><mask/><g stroke-linecap="round"><g transform="translate(110.95153568400292 390.5963101000146) rotate(0 22.095204363957293 0)"><path d="M0 0 C7.37 0, 36.83 0, 44.19 0 M0 0 C7.37 0, 36.83 0, 44.19 0" stroke="#f08c00" stroke-width="2" fill="none"/></g></g><mask/><g stroke-linecap="round"><g transform="translate(110.16371225336059 215.73658757590107) rotate(0 22.095204363957293 0)"><path d="M0 0 C7.37 0, 36.83 0, 44.19 0 M0 0 C7.37 0, 36.83 0, 44.19 0" stroke="#f08c00" stroke-width="2" fill="none"/></g></g><mask/><g transform="translate(69.74403711068726 373.38717031105284) rotate(0 10.231658935546875 17.645445790867527)"><text x="0" y="0" font-family="Helvetica, Segoe UI Emoji" font-size="30.687731810204397px" fill="#f08c00" text-anchor="start" style="white-space: pre;" direction="ltr" dominant-baseline="text-before-edge">S</text></g><g transform="translate(68.44244476776674 200.25223907724066) rotate(0 10.231658935546875 17.645445790867527)"><text x="0" y="0" font-family="Helvetica, Segoe UI Emoji" font-size="30.687731810204397px" fill="#f08c00" text-anchor="start" style="white-space: pre;" direction="ltr" dominant-baseline="text-before-edge">P</text></g><g transform="translate(216.33267847014343 515.2032650375752) rotate(0 78.44517517089844 17.645445790867527)"><text x="0" y="0" font-family="Helvetica, Segoe UI Emoji" font-size="30.687731810204394px" fill="#1971c2" text-anchor="start" style="white-space: pre;" direction="ltr" dominant-baseline="text-before-edge">Inner shells</text></g><g transform="translate(214.40730819595382 448.0643449320705) rotate(0 81.84574127197266 17.645445790867527)"><text x="0" y="0" font-family="Helvetica, Segoe UI Emoji" font-size="30.687731810204397px" fill="#1971c2" text-anchor="start" style="white-space: pre;" direction="ltr" dominant-baseline="text-before-edge">Outer shells</text></g><g transform="translate(227.31457940656432 331.1135131708719) rotate(0 151.7745361328125 17.645445790867527)"><text x="0" y="0" font-family="Helvetica, Segoe UI Emoji" font-size="30.687731810204394px" fill="#f08c00" text-anchor="start" style="white-space: pre;" direction="ltr" dominant-baseline="text-before-edge">2 states for each atom</text></g><g transform="translate(231.11062146561372 165.57105912297123) rotate(0 151.7745361328125 17.645445790867527)"><text x="0" y="0" font-family="Helvetica, Segoe UI Emoji" font-size="30.687731810204394px" fill="#f08c00" text-anchor="start" style="white-space: pre;" direction="ltr" dominant-baseline="text-before-edge">6 states for each atom</text></g><g stroke-linecap="round"><g transform="translate(222.1989260441414 189.12959229505395) rotate(0 -27.66284042021607 9.127069087351188)"><path d="M0 0 C-9.22 3.04, -46.1 15.21, -55.33 18.25 M0 0 C-9.22 3.04, -46.1 15.21, -55.33 18.25" stroke="#f08c00" stroke-width="1" fill="none"/></g><g transform="translate(222.1989260441414 189.12959229505395) rotate(0 -27.66284042021607 9.127069087351188)"><path d="M-32.45 0.22 C-37.37 4.1, -42.29 7.98, -55.33 18.25 M-32.45 0.22 C-38.84 5.25, -45.22 10.28, -55.33 18.25" stroke="#f08c00" stroke-width="1" fill="none"/></g><g transform="translate(222.1989260441414 189.12959229505395) rotate(0 -27.66284042021607 9.127069087351188)"><path d="M-26.21 19.14 C-32.47 18.95, -38.73 18.76, -55.33 18.25 M-26.21 19.14 C-34.33 18.89, -42.46 18.65, -55.33 18.25" stroke="#f08c00" stroke-width="1" fill="none"/></g></g><mask/><g stroke-linecap="round"><g transform="translate(224.64355520765662 356.25749143344444) rotate(0 -30.837502140794996 15.045555347639304)"><path d="M0 0 C-10.28 5.02, -51.4 25.08, -61.68 30.09 M0 0 C-10.28 5.02, -51.4 25.08, -61.68 30.09" stroke="#f08c00" stroke-width="1" fill="none"/></g><g transform="translate(224.64355520765662 356.25749143344444) rotate(0 -30.837502140794996 15.045555347639304)"><path d="M-40.84 8.51 C-45.1 12.92, -49.36 17.34, -61.68 30.09 M-40.84 8.51 C-45.08 12.9, -49.32 17.29, -61.68 30.09" stroke="#f08c00" stroke-width="1" fill="none"/></g><g transform="translate(224.64355520765662 356.25749143344444) rotate(0 -30.837502140794996 15.045555347639304)"><path d="M-31.84 26.95 C-37.94 27.59, -44.05 28.24, -61.68 30.09 M-31.84 26.95 C-37.91 27.59, -43.99 28.23, -61.68 30.09" stroke="#f08c00" stroke-width="1" fill="none"/></g></g><mask/></svg>