<?xml version="1.0" encoding="utf-8"?>
<!-- Generator: Adobe Illustrator 10.0, SVG Export Plug-In . SVG Version: 3.0.0 Build 76)  -->
<!DOCTYPE svg PUBLIC "-//W3C//DTD SVG 1.0//EN"    "http://www.w3.org/TR/2001/REC-SVG-20010904/DTD/svg10.dtd" [
	<!ENTITY ns_flows "http://ns.adobe.com/Flows/1.0/">
	<!ENTITY ns_svg "http://www.w3.org/2000/svg">
	<!ENTITY ns_xlink "http://www.w3.org/1999/xlink">
]>
<svg  xmlns="&ns_svg;" xmlns:xlink="&ns_xlink;" xmlns:a="http://ns.adobe.com/AdobeSVGViewerExtensions/3.0/"
	 width="679.998" height="349.332" viewBox="0 0 679.998 349.332"
	 style="overflow:visible;enable-background:new 0 0 679.998 349.332" xml:space="preserve">
	<style type="text/css">
	<![CDATA[
		.st0{fill:none;stroke:#666666;stroke-width:2;}
		.st1{fill:none;stroke:#FF0000;stroke-width:3;}
		.st2{fill:#FB805F;}
		.st3{fill:none;stroke:#FCC0A7;stroke-width:3;}
		.st4{fill:#FC4128;}
		.st5{fill:#FCC0A7;}
		.st6{fill:none;stroke:#666666;stroke-width:2;stroke-linecap:round;}
		.st7{fill:#FF0000;}
		.st8{fill:#FFFFFF;}
		.st9{fill:none;}
		.st10{fill:none;stroke:#000000;stroke-width:2;}
		.st11{fill:none;stroke:#000000;stroke-width:3;}
		.st12{fill:none;stroke:#FC4128;stroke-width:3;}
		.st13{fill:none;stroke:#FB805F;stroke-width:3;}
	]]>
	</style>
	<metadata>
<?xpacket begin='' id='W5M0MpCehiHzreSzNTczkc9d' bytes='824'?><?adobe-xap-filters esc="CR"?>
<x:xapmeta xmlns:x='adobe:ns:meta/'>
<rdf:RDF xmlns:rdf='http://www.w3.org/1999/02/22-rdf-syntax-ns#'
 xmlns:iX='http://ns.adobe.com/iX/1.0/'>

 <rdf:Description about=''
  xmlns='http://ns.adobe.com/pdf/1.3/'
  xmlns:pdf='http://ns.adobe.com/pdf/1.3/'>
  <pdf:CreationDate>2006-03-16T21:10:06Z</pdf:CreationDate>
  <pdf:ModDate>2006-03-16T21:10:06Z</pdf:ModDate>
 </rdf:Description>

 <rdf:Description about=''
  xmlns='http://ns.adobe.com/xap/1.0/'
  xmlns:xap='http://ns.adobe.com/xap/1.0/'>
  <xap:CreateDate>2006-03-16T21:10:06Z</xap:CreateDate>
  <xap:ModifyDate>2006-03-16T21:10:06Z</xap:ModifyDate>
  <xap:CreatorTool>Adobe Illustrator 10.0</xap:CreatorTool>
 </rdf:Description>

</rdf:RDF>
</x:xapmeta>
<?xpacket end='r'?>
			</metadata>
		<g id="Layer_1">
			<g id="Layer_1_1_">
				<path class="st8" d="M679.998,349.332H0V0h679.998V349.332z"/>
				<g>
					<path class="st10" d="M103.895,134.301l-86.969,50.211V67.176l86.969-50.211V134.301z"/>
					<path class="st10" d="M16.926,125.844l86.969-50.211"/>
					<path class="st10" d="M60.412,42.07v117.336"/>
				</g>
				<path class="st0" d="M81.441,106.375l290.586,77.859"/>
				<path class="st3" d="M372.197,184.281c-11.033-6.191-38.688-22.242-50.433-25.391c-11.741-3.145-6.733,6.836-5.534,10.391
					c1.198,3.559,6.207,13.539-5.535,10.391c-11.744-3.141-39.398-19.195-50.43-25.383c-11.033-6.191-38.688-22.242-50.43-25.391
					c-11.744-3.145-6.736,6.836-5.535,10.395c1.197,3.555,6.205,13.535-5.537,10.391c-11.744-3.145-39.398-19.199-50.43-25.387
					c-11.031-6.191-38.686-22.242-50.43-25.391c-11.744-3.145-6.734,6.836-5.535,10.395"/>
				<path class="st3" d="M372.197,184.281c1.137-13.434,5.992-48.84-5.752-51.984c-11.744-3.148-39.244,26.188-50.215,36.992
					c-10.972,10.797-38.472,40.133-50.215,36.988c-11.744-3.146-6.889-38.551-5.75-51.988c1.137-13.434,5.992-48.836-5.752-51.984
					c-11.744-3.148-39.244,26.188-50.213,36.992c-10.973,10.797-38.473,40.137-50.217,36.988
					c-11.742-3.145-6.889-38.551-5.75-51.984c1.139-13.433,5.992-48.84-5.752-51.988c-11.742-3.145-39.242,26.191-50.213,36.992"/>
				<path class="st13" d="M372.205,184.285c4.037-6.488,16.627-23.328,4.885-26.477c-11.744-3.145-46.981,7.625-60.852,11.48
					c-13.869,3.848-49.107,14.621-60.854,11.478c-11.742-3.148,0.85-19.989,4.887-26.478c4.035-6.484,16.625-23.328,4.881-26.473
					c-11.744-3.145-46.977,7.625-60.848,11.477c-13.867,3.852-49.107,14.625-60.852,11.477c-11.744-3.145,0.85-19.988,4.883-26.473
					c4.039-6.484,16.629-23.328,4.885-26.477c-11.744-3.145-46.982,7.629-60.852,11.48"/>
				<path class="st1" d="M372.197,184.281c-4.916-13.396-16.24-48.695-27.982-51.844c-11.744-3.145-23.065,26.09-27.983,36.848
					c-4.916,10.762-16.238,39.992-27.982,36.844c-11.742-3.145-23.066-38.445-27.982-51.84s-16.238-48.695-27.982-51.844
					c-11.744-3.145-23.066,26.086-27.982,36.848c-4.916,10.762-16.24,39.992-27.984,36.844
					c-11.742-3.145-23.066-38.445-27.982-51.84s-16.238-48.695-27.982-51.844c-11.744-3.145-23.066,26.086-27.982,36.848"/>
				<g>
					<path class="st9" d="M415.678,217.844l-86.963,50.211V150.719l86.963-50.211V217.844z"/>
					<path class="st11" d="M415.678,100.508v117.336"/>
					<path class="st6" d="M328.715,209.387l86.963-50.211"/>
					<path class="st6" d="M328.715,201.387l86.963-50.211"/>
					<path class="st6" d="M328.715,193.387l86.963-50.211"/>
					<path class="st6" d="M328.715,185.387l86.963-50.211"/>
					<path class="st6" d="M328.715,177.387l86.963-50.211"/>
					<path class="st6" d="M328.715,169.387l86.963-50.211"/>
					<path class="st6" d="M328.715,161.387l86.963-50.211"/>
					<path class="st6" d="M328.715,153.387l86.963-50.211"/>
					<path class="st6" d="M328.715,265.387l86.963-50.211"/>
					<path class="st6" d="M328.715,257.387l86.963-50.211"/>
					<path class="st6" d="M328.715,249.387l86.963-50.211"/>
					<path class="st6" d="M328.715,241.387l86.963-50.211"/>
					<path class="st6" d="M328.715,233.387l86.963-50.211"/>
					<path class="st6" d="M328.715,225.387l86.963-50.211"/>
					<path class="st6" d="M328.715,217.387l86.963-50.211"/>
					<path class="st11" d="M328.715,268.055V150.719"/>
				</g>
				<g>
					<g>
						<path class="st12" d="M89.99,83.66l-29.578,17.078L30.83,117.816"/>
						<g>
							<path class="st4" d="M94.367,81.133l-12.381,1.965v10.367L94.367,81.133z"/>
							<path d="M81.986,88.281"/>
						</g>
						<g>
							<path class="st4" d="M26.455,120.344l12.381-1.965v-10.367L26.455,120.344z"/>
							<path d="M38.836,113.195"/>
						</g>
					</g>
					<g>
						<path class="st3" d="M81.326,116.879l-20.914-16.141l-20.92-16.141"/>
						<g>
							<path class="st5" d="M84.42,119.27l-6.037-11.984l-5.432,10.457L84.42,119.27z"/>
							<path d="M75.666,112.516"/>
						</g>
						<g>
							<path class="st5" d="M36.4,82.207l6.037,11.984l5.432-10.461L36.4,82.207z"/>
							<path d="M45.154,88.965"/>
						</g>
					</g>
					<g>
						<path class="st13" d="M81.326,60.441l-20.914,40.297l-20.918,40.297"/>
						<g>
							<path class="st2" d="M84.42,54.48L72.953,69.25l5.43,4.195L84.42,54.48z"/>
							<path d="M75.668,71.348"/>
						</g>
						<g>
							<path class="st2" d="M36.402,146.996l11.467-14.77l-5.43-4.191L36.402,146.996z"/>
							<path d="M45.154,130.133"/>
						</g>
					</g>
					<g>
						<g>
							<path class="st7" d="M60.41,54.926l-3.842,18.922l7.682-4.438L60.41,54.926z"/>
							<path d="M60.41,71.629"/>
						</g>
						<g>
							<path class="st7" d="M60.41,146.551l3.84-18.922l-7.682,4.438L60.41,146.551z"/>
							<path d="M60.41,129.848"/>
						</g>
						<path class="st1" d="M60.41,60.828v39.91v39.91"/>
					</g>
				</g>
				<path class="st0" d="M372.197,184.281l246.988,66.18"/>
				<path class="st1" d="M596.061,244.266c-4.918-13.395-16.241-48.695-27.983-51.84c-11.742-3.148-23.066,26.082-27.984,36.844
					c-4.914,10.758-16.233,39.992-27.979,36.845c-11.746-3.146-23.066-38.445-27.98-51.841
					c-4.914-13.397-16.242-48.694-27.988-51.839c-11.741-3.148-23.063,26.082-27.979,36.843
					c-4.916,10.759-16.238,39.992-27.982,36.845c-11.743-3.146-23.065-38.445-27.981-51.84"/>
				<path class="st0" d="M81.441,106.375l-21.031-5.637"/>
				<g>
					<g>
						<path class="st10" d="M662.67,284.023l-86.969,50.211V216.898l86.969-50.211V284.023z"/>
						<path class="st10" d="M575.701,275.566l86.969-50.211"/>
						<path class="st10" d="M619.189,191.793v117.336"/>
					</g>
					<g>
						<g>
							<path class="st7" d="M619.186,204.648l-3.84,18.922l7.681-4.438L619.186,204.648z"/>
							<path d="M619.186,221.352"/>
						</g>
						<g>
							<path class="st7" d="M619.186,296.273l3.841-18.922l-7.681,4.438L619.186,296.273z"/>
							<path d="M619.186,279.57"/>
						</g>
						<path class="st1" d="M619.186,210.551v39.91v39.91"/>
					</g>
				</g>
			</g>
		</g>
	</svg>
